<svg width="24" height="24" viewBox="0 0 24 24" fill="none" xmlns="http://www.w3.org/2000/svg">
<path d="M13.2857 2H15.8314C16.0166 2.89375 16.5257 4.02125 17.4193 5.14C18.2936 6.23625 19.4533 7 21 7V9.5C18.7461 9.5 17.0529 8.4825 15.8571 7.21375V15.75C15.8571 16.9861 15.4801 18.1945 14.7737 19.2223C14.0674 20.2501 13.0633 21.0512 11.8887 21.5242C10.714 21.9973 9.42144 22.1211 8.17442 21.8799C6.9274 21.6387 5.78194 21.0435 4.88289 20.1694C3.98384 19.2953 3.37157 18.1817 3.12353 16.9693C2.87548 15.7569 3.00279 14.5003 3.48935 13.3582C3.97591 12.2162 4.79988 11.2401 5.85705 10.5533C6.91422 9.86656 8.15712 9.5 9.42857 9.5V12C8.6657 12 7.91996 12.2199 7.28566 12.632C6.65136 13.044 6.15698 13.6297 5.86504 14.3149C5.5731 15.0002 5.49672 15.7542 5.64555 16.4816C5.79437 17.209 6.16173 17.8772 6.70116 18.4016C7.24059 18.9261 7.92787 19.2832 8.67608 19.4279C9.42429 19.5726 10.1998 19.4984 10.9046 19.2145C11.6094 18.9307 12.2118 18.4501 12.6357 17.8334C13.0595 17.2167 13.2857 16.4917 13.2857 15.75V2Z" fill="#CCDAEB"/>
</svg>
